<?xml version="1.0" standalone="no"?>
<!DOCTYPE svg PUBLIC "-//W3C//DTD SVG 20010904//EN"
 "http://www.w3.org/TR/2001/REC-SVG-20010904/DTD/svg10.dtd">
<svg version="1.0" xmlns="http://www.w3.org/2000/svg"
 width="512.000000pt" height="512.000000pt" viewBox="0 0 512.000000 512.000000"
 preserveAspectRatio="xMidYMid meet">
<metadata>
Created by potrace 1.14, written by Peter Selinger 2001-2017
</metadata>
<g transform="translate(0.000000,512.000000) scale(0.100000,-0.100000)"
fill="#000000" stroke="none">
<path d="M3660 3642 c0 -4 -15 -8 -32 -9 -62 -2 -108 -8 -108 -13 0 -3 -15 -5
-33 -6 -17 0 -43 -4 -56 -8 -17 -6 -22 -5 -16 4 4 7 -4 4 -19 -5 -14 -10 -26
-13 -26 -7 0 7 -11 6 -32 -3 -37 -15 -37 -15 -79 -15 -20 0 -28 -4 -23 -12 4
-7 3 -8 -4 -4 -7 4 -28 3 -47 -3 -26 -7 -35 -6 -35 2 0 8 -3 9 -8 1 -4 -6 -29
-16 -57 -23 -27 -7 -60 -17 -73 -22 -17 -7 -21 -6 -16 2 5 8 3 9 -7 3 -8 -5
-17 -9 -21 -10 -5 -1 -9 -2 -10 -4 -5 -3 -43 -11 -63 -13 -11 -1 -23 -6 -26
-10 -3 -4 -16 -9 -27 -10 -12 -1 -22 -4 -22 -7 0 -4 -6 -7 -12 -8 -30 -2 -75
-14 -105 -29 -17 -8 -36 -12 -41 -9 -6 3 -12 -1 -16 -9 -3 -8 -12 -15 -21 -15
-17 0 -56 -20 -66 -34 -4 -5 -12 -5 -18 -2 -6 4 -11 2 -11 -5 0 -7 -3 -10 -6
-6 -3 3 -13 -1 -22 -9 -10 -8 -21 -14 -26 -13 -5 0 -12 -4 -16 -11 -4 -6 -15
-12 -24 -14 -10 -1 -21 -9 -26 -16 -5 -8 -12 -11 -16 -8 -3 4 -11 2 -18 -3
-15 -14 -80 -53 -88 -54 -12 0 -68 -55 -68 -66 0 -5 -4 -8 -9 -5 -5 3 -12 -1
-15 -10 -3 -9 -11 -12 -18 -8 -7 4 -10 4 -6 -1 4 -4 0 -15 -9 -24 -9 -9 -17
-14 -17 -12 -1 3 -29 -23 -63 -56 -34 -33 -63 -60 -65 -58 -2 1 -11 -7 -20
-17 -10 -10 -16 -18 -13 -18 3 0 -6 -12 -20 -27 -14 -16 -34 -40 -43 -55 -9
-16 -20 -28 -24 -28 -4 0 -4 -7 -1 -17 4 -11 3 -14 -5 -9 -8 5 -12 0 -12 -13
0 -12 -5 -21 -11 -21 -5 0 -8 -4 -4 -9 3 -6 -3 -14 -12 -20 -14 -8 -15 -10 -3
-11 13 0 13 -1 0 -10 -8 -5 -11 -10 -6 -10 5 0 4 -6 -2 -13 -6 -7 -13 -24 -15
-37 -3 -14 -10 -37 -16 -52 -6 -16 -8 -28 -5 -28 4 0 2 -6 -3 -12 -6 -7 -11
-20 -11 -28 0 -8 -4 -28 -8 -45 -3 -16 -7 -40 -7 -52 -1 -13 -4 -23 -7 -23 -4
0 -6 -10 -5 -22 1 -13 -2 -29 -8 -35 -6 -9 -5 -13 4 -13 9 0 10 -3 4 -8 -15
-10 -15 -245 -1 -254 8 -5 8 -8 0 -8 -13 0 -12 -38 0 -59 7 -10 6 -12 -4 -6
-10 6 -11 4 -4 -6 4 -8 9 -18 10 -24 1 -5 4 -26 8 -46 3 -20 10 -48 15 -62 5
-14 7 -28 4 -31 -3 -3 -1 -12 5 -19 7 -8 9 -16 6 -19 -3 -3 -7 -27 -9 -52 -2
-25 -9 -54 -14 -65 -6 -10 -7 -21 -4 -25 3 -3 1 -6 -6 -6 -7 0 -9 -5 -6 -10 3
-5 2 -10 -2 -10 -5 0 -10 -12 -11 -27 -1 -14 -8 -34 -16 -42 -8 -9 -24 -38
-36 -66 -12 -27 -26 -52 -30 -55 -6 -5 -17 -28 -18 -43 -1 -4 -8 -14 -16 -23
-8 -8 -12 -22 -9 -31 4 -11 3 -14 -5 -9 -7 4 -13 0 -14 -11 -2 -33 -3 -38 -12
-52 -5 -8 -8 -34 -7 -59 2 -64 41 -100 105 -100 25 0 44 3 41 8 -3 5 -1 11 5
15 6 4 8 11 5 16 -4 5 -1 9 5 9 6 0 8 5 5 10 -4 6 -2 16 3 23 6 7 13 26 16 42
2 17 5 32 7 35 1 3 3 10 3 15 1 6 7 20 14 31 6 12 8 24 5 28 -3 3 -1 6 6 6 7
0 10 4 6 9 -3 5 0 13 6 16 5 4 8 13 5 21 -3 8 -1 14 4 14 6 0 10 6 10 14 0 8
5 16 11 18 5 2 11 11 13 21 1 10 10 27 19 38 9 10 17 22 17 25 0 3 12 22 28
42 15 20 20 32 12 28 -8 -5 -5 1 8 13 12 12 22 26 22 32 0 6 7 17 15 26 8 8
13 19 10 24 -4 5 1 9 9 9 9 0 15 3 15 8 -3 17 2 30 21 52 11 13 20 29 20 37 0
8 3 12 8 9 4 -2 15 9 25 25 10 18 12 27 4 23 -6 -3 0 5 16 18 15 14 27 31 27
37 0 20 149 177 212 224 37 27 87 52 101 49 4 -1 7 2 7 8 0 5 11 10 25 10 26
0 25 3 29 -85 0 -16 -1 -34 -4 -40 -3 -5 -6 -19 -6 -30 -3 -36 -15 -79 -23
-85 -5 -3 -7 -13 -5 -22 1 -10 -3 -18 -9 -18 -5 0 -7 -3 -4 -7 4 -3 2 -12 -4
-20 -6 -7 -8 -13 -4 -13 4 0 0 -12 -10 -26 -11 -18 -13 -24 -4 -19 8 5 3 -4
-10 -18 -17 -19 -20 -27 -10 -27 9 0 10 -3 3 -8 -12 -8 -28 -43 -26 -54 1 -5
-2 -8 -8 -8 -5 0 -10 -9 -10 -20 0 -11 -5 -20 -11 -20 -5 0 -8 -4 -4 -9 3 -5
1 -12 -5 -16 -5 -3 -10 -15 -10 -25 0 -10 -5 -20 -10 -22 -6 -2 -12 -16 -14
-31 -1 -14 -10 -35 -19 -45 -10 -10 -14 -22 -10 -25 3 -4 1 -7 -6 -7 -7 0 -9
-4 -6 -10 3 -5 1 -19 -5 -30 -9 -16 -8 -22 5 -26 8 -3 12 -11 8 -18 -4 -6 0
-6 9 2 11 9 17 9 20 2 2 -6 17 -12 33 -13 17 -2 35 -6 41 -10 6 -3 14 -4 17
-1 3 4 34 8 69 10 74 4 108 10 178 29 3 1 19 5 35 10 17 4 33 13 37 19 6 8 8
8 8 -1 0 -8 10 -6 33 5 17 9 39 17 48 19 8 1 29 9 45 18 16 8 37 15 46 15 9 0
18 3 20 8 2 4 32 20 68 37 67 31 122 64 128 78 2 4 8 7 14 7 5 0 34 25 64 55
31 31 60 53 65 49 5 -3 8 -1 7 4 -2 5 31 42 72 81 43 41 74 79 72 88 -2 8 1
12 6 9 7 -4 49 72 67 124 1 3 7 19 14 35 6 17 11 34 10 39 0 5 7 14 16 19 14
8 15 11 4 18 -11 7 -11 9 -1 9 7 0 10 5 7 10 -3 6 -1 10 6 10 7 0 9 3 6 6 -3
4 -2 15 4 26 6 11 12 28 14 38 2 11 11 34 19 52 9 18 18 44 20 58 3 14 5 25 7
25 2 0 10 47 10 68 0 9 4 17 8 17 5 0 7 11 6 25 -2 14 1 25 6 25 6 0 8 4 5 9
-3 5 3 48 13 97 11 49 17 92 14 97 -2 4 1 7 7 7 7 0 10 5 8 12 -3 7 1 36 8 66
7 30 10 60 7 68 -3 8 1 14 8 14 7 0 10 2 7 6 -5 4 -2 22 17 94 2 8 4 16 5 18
2 1 4 7 5 12 1 6 4 12 5 15 1 3 4 10 5 15 1 6 4 12 5 15 1 3 3 10 4 15 0 6 8
15 16 20 13 9 13 10 0 10 -13 1 -13 2 1 13 9 7 15 22 14 34 -1 12 2 20 6 18 4
-3 12 9 18 25 5 17 7 30 4 30 -3 0 2 9 12 20 10 11 15 20 11 20 -4 0 -1 10 6
23 7 12 11 25 10 30 -1 4 2 7 6 7 4 0 8 10 9 22 1 12 9 26 18 30 8 5 13 14 9
19 -3 5 0 16 6 24 6 8 9 19 5 25 -3 5 -1 10 5 10 6 0 8 5 5 10 -3 6 -1 10 5
10 6 0 8 5 5 10 -4 6 -1 17 5 25 7 8 10 15 6 15 -3 0 -1 11 3 24 13 33 -12 58
-46 45 -13 -5 -22 -5 -19 0 6 10 -169 9 -179 -1 -4 -4 -18 -3 -31 2 -13 5 -24
6 -24 2z"/>
</g>
</svg>
